<?xml version="1.0" encoding="UTF-8" standalone="no"?>
<!-- Created with Inkscape (http://www.inkscape.org/) -->

<svg
   width="48"
   height="48"
   viewBox="0 0 48 48"
   version="1.1"
   id="svg1"
   xml:space="preserve"
   inkscape:version="1.4.2 (f4327f4, 2025-05-13)"
   sodipodi:docname="1faa7.svg"
   xmlns:inkscape="http://www.inkscape.org/namespaces/inkscape"
   xmlns:sodipodi="http://sodipodi.sourceforge.net/DTD/sodipodi-0.dtd"
   xmlns:xlink="http://www.w3.org/1999/xlink"
   xmlns="http://www.w3.org/2000/svg"
   xmlns:svg="http://www.w3.org/2000/svg"><sodipodi:namedview
     id="namedview1"
     pagecolor="#ffffff"
     bordercolor="#000000"
     borderopacity="0.25"
     inkscape:showpageshadow="2"
     inkscape:pageopacity="0.0"
     inkscape:pagecheckerboard="0"
     inkscape:deskcolor="#d1d1d1"
     inkscape:document-units="px"
     showgrid="true"
     inkscape:zoom="11.313709"
     inkscape:cx="17.500893"
     inkscape:cy="27.356194"
     inkscape:window-width="1920"
     inkscape:window-height="991"
     inkscape:window-x="-9"
     inkscape:window-y="-9"
     inkscape:window-maximized="1"
     inkscape:current-layer="layer1"><inkscape:grid
       id="grid1"
       units="px"
       originx="0"
       originy="0"
       spacingx="1"
       spacingy="1"
       empcolor="#0099e5"
       empopacity="0.30196078"
       color="#0099e5"
       opacity="0.14901961"
       empspacing="5"
       enabled="true"
       visible="true" /></sodipodi:namedview><defs
     id="defs1"><linearGradient
       id="linearGradient6"
       inkscape:collect="always"><stop
         style="stop-color:#cccccc;stop-opacity:1;"
         offset="0"
         id="stop6" /><stop
         style="stop-color:#f3f3f3;stop-opacity:1;"
         offset="0.56014365"
         id="stop8" /><stop
         style="stop-color:#cccccc;stop-opacity:1;"
         offset="1"
         id="stop7" /></linearGradient><linearGradient
       inkscape:collect="always"
       xlink:href="#linearGradient6"
       id="linearGradient7"
       x1="1.005856"
       y1="17.50293"
       x2="47.001957"
       y2="17.50293"
       gradientUnits="userSpaceOnUse" /></defs><g
     inkscape:label="Warstwa 1"
     inkscape:groupmode="layer"
     id="layer1"><rect
       style="fill:#7d4a00;stroke-width:1.10938;fill-opacity:1"
       id="rect4"
       width="5.992238"
       height="47.999996"
       x="20.988358"
       y="-9.6004504e-10" /><path
       style="opacity:1;fill:url(#linearGradient7);baseline-shift:baseline;display:inline;overflow:visible;vector-effect:none;stroke-linejoin:round;paint-order:stroke fill markers;enable-background:accumulate;stop-color:#000000;stop-opacity:1"
       d="M 1.4980469,3 C 1.2254868,3.0000752 1.0048552,3.2215824 1.0058594,3.4941406 V 31.513672 c 7.71e-5,0.271796 0.2203919,0.49211 0.4921875,0.492187 H 46.509766 c 0.271795,-7.7e-5 0.49211,-0.220392 0.492187,-0.492187 V 3.4941406 C 47.002957,3.2215826 46.782326,3.0000755 46.509766,3 Z"
       id="path5"
       sodipodi:nodetypes="ccccccccc" /><path
       style="fill:#000000;fill-opacity:1;stroke:none;stroke-width:0.193809;stroke-linejoin:round;stroke-dasharray:none;stroke-opacity:1;paint-order:stroke fill markers"
       id="path10"
       d="m 8.0678968,12.567702 c 0.5346343,-0.419219 1.1199208,-0.792158 1.786947,-1.062151 0.2043772,-0.08273 0.4179652,-0.149374 0.6269472,-0.224061 0.563,-0.175621 1.142896,-0.350147 1.757775,-0.264499 0.690104,0.09612 1.320163,0.443477 1.908827,0.727985 0.568743,0.29807 1.130583,0.604953 1.710847,0.888159 0.158831,0.07752 0.619189,0.305404 0.820471,0.349233 0.146399,0.03188 0.301436,0.02554 0.452154,0.03831 0.906703,-0.08075 1.713367,-0.440031 2.519831,-0.760065 0.944381,-0.374763 0.577697,-0.231718 1.542103,-0.595545 0.808235,-0.263288 1.633933,-0.506598 2.490776,-0.642976 0.237336,-0.03778 0.476748,-0.07297 0.71824,-0.08319 0.553269,-0.02339 0.821233,0.04196 1.357312,0.121393 0.604759,0.125677 1.169152,0.34206 1.735554,0.549706 0.145397,0.05331 0.667049,0.251637 0.839634,0.286497 0.142562,0.0288 0.291575,0.02906 0.437361,0.04357 0.73446,-0.02528 1.413038,-0.267878 2.105475,-0.442429 0.532097,-0.134132 0.586696,-0.138616 1.119718,-0.245965 0.42007,-0.07409 0.844025,-0.132556 1.272882,-0.158206 0.0954,-0.0057 0.191093,-0.0076 0.28664,-0.0113 0.08628,-0.0034 0.173577,0.0012 0.258849,-0.01009 0.102653,-0.01353 0.201309,-0.04258 0.301967,-0.06388 0.383593,-0.191727 0.520076,-0.235674 0.851993,-0.515387 0.188551,-0.158894 0.354212,-0.334909 0.52575,-0.5061391 0.176591,-0.1762764 0.346597,-0.3568769 0.518476,-0.5362236 0.285098,-0.2974858 0.567015,-0.5969907 0.851192,-0.8950627 0.224995,-0.1797479 0.481349,-0.5210067 0.859919,-0.49649 0.247752,0.016044 0.541073,0.2314461 0.716668,0.3531163 0.08648,0.072589 0.176565,0.1424364 0.25946,0.2177567 0.101226,0.091977 0.39059,0.3780569 0.292549,0.2838127 -0.555929,-0.5344011 -1.101516,-1.0760395 -1.666221,-1.6042873 -0.134284,-0.125614 0.25207,0.2623843 0.374402,0.395869 0.121142,0.1321897 0.238563,0.2666279 0.35593,0.4010625 0.110881,0.1270052 0.219194,0.2554884 0.328792,0.3832321 0.260733,0.2899818 0.488177,0.6019685 0.771342,0.8786129 0.851123,0.8315255 1.535707,1.7000955 2.535663,2.3707705 0.09638,0.06443 0.202662,0.09899 0.320673,0.124535 0,0 -1.776176,-2.1819137 -1.776176,-2.1819137 v 0 c -0.08015,-0.048824 -0.158201,-0.099793 -0.230569,-0.156317 -0.759824,-0.5957118 -1.67972,-1.6030673 1.532425,1.5399807 0.08184,0.08007 -0.167514,-0.15762 -0.245882,-0.23997 -0.145724,-0.15313 -0.433403,-0.49264 -0.563166,-0.643739 C 40.586119,10.01076 40.195706,9.5507047 40.050863,9.3869712 39.933421,9.254216 39.819745,9.1189065 39.69242,8.9923553 38.923956,8.2285717 38.146757,7.4706133 37.364044,6.7165123 37.262122,6.6183153 37.153205,6.5247374 37.039029,6.4359569 36.944581,6.3625112 36.839142,6.2990813 36.739198,6.2306444 36.64012,6.1831344 36.546916,6.1263337 36.441967,6.0881178 36.238844,6.0141545 36.006869,5.9748912 35.784023,6.0093652 c -0.437222,0.06764 -0.710354,0.3785988 -0.978805,0.6340131 -0.432441,0.4846264 -0.85821,0.9773778 -1.335174,1.4340903 -0.298297,0.2856301 -0.547578,0.5218272 -0.926931,0.7263837 -0.107906,0.058186 -0.231546,0.094143 -0.347317,0.1412146 -0.08866,0.012272 -0.176728,0.027898 -0.265995,0.036825 -0.183054,0.018301 -0.369118,0.012085 -0.550993,0.040946 -0.281882,0.029566 -0.504056,0.06129 -0.785937,0.1094149 -0.166685,0.02846 -0.332251,0.061111 -0.498377,0.091668 -0.572822,0.1226708 -0.557777,0.1145209 -1.132842,0.2580498 -0.514361,0.1283783 -1.034874,0.299077 -1.574358,0.3457714 -0.141249,0.01223 -0.284065,0.00279 -0.426097,0.00423 C 26.833019,9.8077723 26.702154,9.79161 26.576661,9.7593934 26.434986,9.7230102 25.875805,9.523569 25.7588,9.4834972 25.176872,9.2841995 24.591306,9.0872465 23.969629,8.9841398 c -0.590247,-0.063136 -0.826461,-0.1148375 -1.43121,-0.069423 -0.247251,0.018569 -0.49128,0.06128 -0.733522,0.1057233 -0.867114,0.1590931 -1.701543,0.4179136 -2.529218,0.6765883 -1.720491,0.6437316 0.124984,-0.050332 -1.551426,0.5908406 -0.611829,0.234003 -1.265463,0.508226 -1.939629,0.602646 -0.152645,0.02138 -0.309201,0.01516 -0.463801,0.02275 -0.12708,-0.02639 -0.258413,-0.04172 -0.381241,-0.07919 -0.179667,-0.05484 -0.631644,-0.272948 -0.776839,-0.34362 C 13.58861,10.211002 13.032471,9.9081191 12.459889,9.6265969 11.809521,9.3333037 11.160225,9.0107804 10.3999,8.9547558 9.7491922,8.9068086 9.1409064,9.1020974 8.5504949,9.2931507 8.3333764,9.3716355 8.112237,9.4430977 7.8991415,9.5285952 7.2122647,9.8041799 6.5958996,10.168277 6.0059937,10.562689 Z" /><path
       style="fill:#000000;fill-opacity:1;stroke:none;stroke-width:0.219163;stroke-linejoin:round;stroke-dasharray:none;stroke-opacity:1;paint-order:stroke fill markers"
       id="path11"
       d="m 8.8200482,19.53416 c 0.052011,-0.0463 0.099991,-0.09658 0.1560343,-0.138917 0.5492484,-0.414969 1.1948755,-0.73436 1.8561385,-0.979907 0.150083,-0.05573 0.304971,-0.100395 0.457456,-0.150593 0.322836,-0.08561 0.620138,-0.147756 0.951665,-0.06695 0.190003,0.04631 0.352182,0.140641 0.509828,0.241728 0.383523,0.326222 0.77534,0.644921 1.172249,0.957965 0.135238,0.107143 0.280063,0.206286 0.44092,0.28069 0.03062,0.01416 0.160976,0.06742 0.203995,0.06846 0.04537,0.0011 0.08961,-0.01303 0.134419,-0.01953 0.32449,-0.111842 0.600664,-0.303848 0.867629,-0.498953 0.03466,-0.02657 0.07044,-0.05199 0.103967,-0.0797 0.06117,-0.05054 0.118208,-0.105035 0.180019,-0.154933 0.160119,-0.129259 0.37351,-0.286205 0.544866,-0.399861 0.270225,-0.17923 0.307164,-0.191156 0.587395,-0.341783 0.136982,-0.06442 0.311638,-0.163173 0.473357,-0.182347 0.286299,-0.03395 0.612169,0.155534 0.841935,0.265579 0.18263,0.08747 0.363993,0.177056 0.54599,0.265585 1.016554,0.525297 2.068641,1.009213 3.219299,1.248976 0.335597,0.06993 0.675512,0.129515 1.018682,0.156786 0.376759,0.02994 0.756387,0.0096 1.13458,0.01433 1.736731,-0.0838 3.439391,-0.420889 5.12367,-0.790773 0.397447,-0.0776 0.785038,-0.198714 1.185605,-0.264411 0.115541,-0.01895 0.231966,-0.03838 0.349381,-0.04101 0.321118,-0.0072 0.467923,0.04607 0.783139,0.114767 0.146037,0.04233 0.29427,0.07898 0.438115,0.127 0.221194,0.07383 0.615226,0.238053 0.831203,0.328275 0.318274,0.132955 0.63362,0.266686 0.957922,0.387412 0.07932,0.02261 0.155391,0.05846 0.237951,0.06783 0.404096,0.04587 0.903892,-0.23976 1.229542,-0.431836 0.326265,-0.215115 0.660831,-0.4191 1.002218,-0.614256 0.122062,-0.05653 0.253677,-0.142431 0.398502,-0.143669 0.09217,-7.85e-4 0.263797,0.06189 0.334161,0.08455 0.08125,0.02617 0.162044,0.05347 0.243067,0.08021 0.281703,0.08055 0.533441,0.221763 0.802596,0.327763 0.129143,0.05086 0.136842,0.04951 0.265672,0.08486 0.04265,0.0059 0.08492,0.01468 0.12795,0.01764 0.16332,0.01126 0.333317,0.0025 0.497361,0.0072 0.05794,0.0016 0.115811,0.0052 0.173713,0.0078 0.06422,0.0017 0.12843,0.0034 0.192646,0.0051 0.393418,-0.01057 0.807171,-0.0021 1.177408,-0.143165 0.103358,-0.03937 0.199321,-0.09283 0.298982,-0.13925 0.40712,-0.211693 0.797975,-0.446404 1.183256,-0.688349 0,0 -2.741549,-2.964907 -2.741549,-2.964907 v 0 c -0.339453,0.249298 -0.692758,0.485312 -1.088456,0.659085 -0.08493,0.02899 -0.167907,0.06311 -0.254786,0.08699 -0.347336,0.09547 -0.723091,0.07343 -1.080259,0.06313 -0.301937,-0.01624 -0.616565,-0.0041 -0.896351,-0.120039 -0.348447,-0.135548 -0.694867,-0.276822 -1.062019,-0.368392 -0.212836,-0.04805 -0.350611,-0.09258 -0.573533,-0.08902 -0.263046,0.0042 -0.498437,0.127057 -0.714788,0.246884 -0.341717,0.196368 -0.663247,0.417837 -0.995331,0.626853 -0.175674,0.101298 -0.359391,0.216147 -0.567929,0.256346 -0.199188,0.03839 -0.376839,-0.04 -0.55782,-0.102097 -0.746637,-0.277684 -1.47576,-0.608941 -2.270901,-0.763079 -0.417462,-0.05563 -0.503322,-0.09147 -0.916705,-0.05569 -0.126825,0.01098 -0.251472,0.03767 -0.375851,0.06249 -0.39572,0.07898 -0.780218,0.198591 -1.16889,0.300145 -0.606397,0.166015 -1.21254,0.336051 -1.829529,0.468335 -1.013717,0.217342 -2.043724,0.373416 -3.08917,0.379697 -0.367175,-0.02224 -0.736946,-0.02171 -1.101523,-0.06675 -1.526473,-0.18855 -2.888006,-0.858076 -4.195735,-1.547972 -0.350586,-0.167365 -0.703358,-0.365332 -1.095011,-0.453856 -0.440106,-0.09948 -0.816921,0.06785 -1.173984,0.274247 -0.09967,0.05769 -0.200701,0.113514 -0.299003,0.17306 -0.305763,0.185212 -0.597599,0.387983 -0.895027,0.583582 -0.06976,0.04587 -0.141949,0.08879 -0.210333,0.1363 -0.03352,0.02329 -0.06336,0.05057 -0.09503,0.07586 -0.106323,0.08133 -0.210482,0.163057 -0.330103,0.228759 -0.03913,0.02149 -0.150301,0.08206 -0.209108,0.08274 -0.01879,2.07e-4 -0.03355,-0.01522 -0.05032,-0.02282 -0.01131,-0.01406 -0.01999,-0.03015 -0.03392,-0.04215 -0.04113,-0.03541 -0.09268,-0.05967 -0.137867,-0.09093 -0.129796,-0.08979 -0.25273,-0.187011 -0.376273,-0.283581 C 11.458079,15.971636 11.250336,15.80387 11.04034,15.638483 10.907066,15.533519 10.736343,15.394206 10.58362,15.30533 10.52346,15.27032 10.457295,15.24445 10.394133,15.214 10.18356,15.14653 9.9793848,15.093499 9.7527015,15.090066 c -0.3701254,-0.0056 -0.7191045,0.0876 -1.0603184,0.208996 -0.1540589,0.06031 -0.3096957,0.117463 -0.4621764,0.180923 -0.7672051,0.3193 -1.5051643,0.695404 -2.2216949,1.097681 z" /><path
       style="fill:#000000;fill-opacity:1;stroke:none;stroke-width:0.18345;stroke-linejoin:round;stroke-dasharray:none;stroke-opacity:1;paint-order:stroke fill markers"
       id="path12"
       d="m 8.4320382,25.880381 c 0.1960781,-0.177451 0.4271991,-0.312464 0.7038416,-0.384545 0.1032864,-0.02691 0.2086843,-0.05085 0.3160746,-0.06107 0.1435536,-0.01368 0.288805,-0.0068 0.4332083,-0.0103 0.2032153,0.02852 0.4088743,0.04656 0.6096463,0.08556 0.757816,0.14719 1.474549,0.408349 2.177995,0.682444 0.218462,0.08513 0.433103,0.177114 0.650381,0.264385 0.195017,0.07833 0.390991,0.154938 0.586485,0.232408 0.723387,0.258245 1.487904,0.418489 2.272492,0.458546 0.545353,0.02785 0.956147,0.0053 1.50655,-0.0095 1.550229,-0.047 3.076163,-0.299565 4.601954,-0.51697 0.373014,-0.04295 0.74366,-0.121366 1.122815,-0.114005 0.341115,0.0066 0.671147,0.07973 1.000307,0.14733 0.318927,0.07039 0.633553,0.152618 0.947678,0.236632 0.148128,0.03962 0.291497,0.08188 0.446532,0.09875 0.0766,0.0083 0.154284,0.0065 0.231426,0.0097 0.133824,-0.04706 0.271378,-0.08713 0.401473,-0.141167 0.481803,-0.200113 0.686042,-0.337479 1.152797,-0.609975 0.645417,-0.376803 1.28562,-0.760016 1.930636,-1.137331 0.408397,-0.218804 0.800213,-0.492202 1.277375,-0.600268 0.128345,-0.02907 0.261511,-0.0435 0.39413,-0.05026 0.389526,-0.01983 0.447526,0.0193 0.831764,0.09913 0.619691,0.173383 1.195039,0.437508 1.772412,0.690836 0.14444,0.06338 0.285585,0.132487 0.433487,0.189858 0.143733,0.05576 0.293593,0.09941 0.44039,0.149117 0.160365,0.01938 0.319104,0.05777 0.481094,0.05814 0.413083,9.41e-4 0.70131,-0.09715 1.085421,-0.218487 0.596272,-0.188357 0.433857,-0.163434 0.996201,-0.351963 0.128901,-0.04322 0.26097,-0.07934 0.391455,-0.118998 0.111116,-0.0076 0.222884,-0.03544 0.333352,-0.02276 0.222617,0.02554 0.456776,0.178503 0.623738,0.283907 0.321701,0.203092 0.614229,0.435701 0.90731,0.666872 0.156393,0.111163 0.285009,0.231582 0.495485,0.270529 0.106911,0.01978 0.218894,0.0091 0.328244,0.0054 0.279024,-0.0094 0.555852,-0.05952 0.828715,-0.105575 0.156039,-0.03376 0.314342,-0.05821 0.475723,-0.05784 0.03003,6.8e-5 0.0607,-0.0021 0.08997,0.0035 0.03865,0.0075 0.06357,0.03382 0.08982,0.05557 0.02694,0.04624 0.06214,0.08129 0.1077,0.114469 0,0 -2.001281,-2.663564 -2.001281,-2.663564 v 0 c -0.06743,-0.03343 -0.132854,-0.05418 -0.213155,-0.05362 -0.261926,0.0034 -0.515185,0.06803 -0.768565,0.118183 -0.226019,0.03735 -0.484121,0.08841 -0.714832,0.04878 -0.261085,-0.04484 -0.444006,-0.219995 -0.639607,-0.356289 -0.387785,-0.278248 -0.891122,-0.656826 -1.389727,-0.765761 -0.344401,-0.07525 -0.461032,-0.01812 -0.792089,0.04554 -0.129406,0.04732 -0.259456,0.09341 -0.388219,0.141974 -0.473528,0.178596 -0.944271,0.387977 -1.466108,0.447907 -0.40053,0.046 -0.485986,-0.0056 -0.864663,-0.08915 -0.138337,-0.05242 -0.278274,-0.101909 -0.415008,-0.157257 -0.14495,-0.05867 -0.286427,-0.123305 -0.429792,-0.184706 -0.60015,-0.257029 -1.203715,-0.517466 -1.862831,-0.649762 -0.442902,-0.05469 -0.515863,-0.09311 -0.950911,-0.03836 -0.153701,0.01935 -0.306869,0.0476 -0.453718,0.09061 -0.489008,0.143239 -0.882305,0.438024 -1.292418,0.691774 -0.616272,0.396142 -1.232838,0.798036 -1.894765,1.139269 -0.301652,0.155505 -0.78778,0.387831 -1.151451,0.481662 -0.100226,0.02586 -0.207559,0.02444 -0.311338,0.03665 -0.06491,-0.01028 -0.130323,-0.01851 -0.194734,-0.03085 -0.04504,-0.0086 -0.383586,-0.08688 -0.420198,-0.09516 -0.315847,-0.07139 -0.632377,-0.140727 -0.950486,-0.204566 -0.303805,-0.05286 -0.441458,-0.08681 -0.747705,-0.102476 -0.506356,-0.02591 -0.980796,0.08049 -1.469598,0.175872 -0.404193,0.07895 -0.756656,0.150265 -1.167543,0.218878 -1.099845,0.183658 -2.2148,0.309769 -3.337623,0.31486 -0.655271,-0.0057 -0.863572,0.0077 -1.498234,-0.05369 C 13.368679,24.606437 12.63625,24.432802 11.942314,24.176575 11.29439,23.93082 10.649908,23.673618 9.9874236,23.456685 9.4680552,23.286616 8.996299,23.146016 8.4510373,23.048822 c -0.2305428,-0.0411 -0.4660141,-0.05899 -0.6990212,-0.08849 -0.1708137,0.0076 -0.3430167,0.0028 -0.5124396,0.02279 -0.1243865,0.01462 -0.2452207,0.04731 -0.3646011,0.0803 -0.3114382,0.08606 -0.5614221,0.220795 -0.8203729,0.384268 z" /></g></svg>
